<svg xmlns="http://www.w3.org/2000/svg" preserveAspectRatio="xMidYMid" width="60" height="62" viewBox="0 0 60 62"><defs><style>.cls-3{fill:#81bda4}.cls-4{fill:#edc951}.cls-5{fill:#000}</style></defs><g id="group-15svg"><path d="M46.545 5.893c-5.187-7.071-9.842-.039-9.842-.039-.118-4.321-3.89-3.221-3.89-3.221s-3.86-1.1-3.978 3.221c0 0-4.7-7.032-9.887.039-5.185 7.072-20.264 1.906-9.892 23.122 0 0-.497 9.203 11.053 4.252 0 0 4.218 7.082 12.704 4.253 8.487 2.829 12.626-4.253 12.626-4.253 11.551 4.951 10.977-4.252 10.977-4.252 10.372-21.216-4.686-16.05-9.871-23.122z" id="path-1" class="cls-3" fill-rule="evenodd"/><path d="M33.025 37.756c-7.248 2.77-12.763-4.371-12.763-4.371-.27.344-2.295 1.17-2.295 1.17l9.813 27.882h10.019l7.823-28.379c-3.639 6.59-12.597 3.698-12.597 3.698zm1.513 15.267l-4.872-9.586h7.387l-2.515 9.586z" id="path-2" class="cls-4" fill-rule="evenodd"/><path d="M32.691 38.687c-1.256 0-2.558-.199-3.878-.594a13.551 13.551 0 0 1-3.883.594c-4.918 0-8.007-2.951-9.344-4.591-4.63 1.746-8.066 1.449-10.155-.756-1.629-1.719-1.859-4.024-1.878-4.986C.227 21.467-.73 16.707.541 13.393c1.262-3.287 4.33-4.524 7.298-5.721 2.346-.946 4.56-1.84 5.899-3.666C15.571 1.507 17.622.24 19.833.24c1.738 0 3.205.809 4.28 1.679.862-1.37 2.306-1.911 3.674-1.911.41 0 .767.044 1.024.09.253-.046.603-.09 1.005-.09 1.343 0 2.761.538 3.611 1.898C34.494 1.041 35.948.24 37.672.24c2.203 0 4.25 1.267 6.083 3.766 1.339 1.826 3.551 2.719 5.893 3.665 2.963 1.197 6.027 2.433 7.287 5.717 1.269 3.313.312 8.073-3.013 14.961-.013.967-.225 3.273-1.84 4.993-1.177 1.253-2.796 1.888-4.811 1.888h-.001c-1.528 0-3.306-.38-5.299-1.131-1.325 1.646-4.38 4.588-9.28 4.588zm-3.878-3.667c.161 0 .321.026.475.078 1.175.391 2.319.589 3.403.589 4.954 0 7.429-4.135 7.453-4.176a1.5 1.5 0 0 1 1.886-.622c2.076.89 3.84 1.341 5.24 1.341h.001c1.17 0 2.029-.308 2.624-.942 1.097-1.167 1.025-3.16 1.024-3.18a1.492 1.492 0 0 1 .149-.752c3.021-6.178 4.023-10.395 3.065-12.894-.791-2.064-3.024-2.965-5.608-4.009-2.506-1.012-5.346-2.159-7.19-4.672C40.1 4.095 38.866 3.24 37.672 3.24c-1.716 0-3.299 1.809-3.718 2.443a1.5 1.5 0 0 1-2.75-.788c-.052-1.887-.889-1.887-1.388-1.887-.335 0-.594.068-.597.069-.26.07-.555.073-.817-.002v.001c-.001 0-.269-.068-.615-.068-.678 0-1.405.145-1.453 1.887a1.501 1.501 0 0 1-2.746.793c-.46-.677-2.039-2.448-3.755-2.448-1.202 0-2.44.855-3.675 2.541-1.845 2.514-4.688 3.661-7.197 4.673-2.589 1.044-4.825 1.946-5.618 4.014-.959 2.498.042 6.714 3.06 12.888.113.229.164.484.151.739-.001.012-.073 2.006 1.065 3.193 1.335 1.392 4.086 1.235 7.899-.399a1.5 1.5 0 0 1 1.88.611c.101.165 2.603 4.187 7.532 4.187 1.088 0 2.234-.198 3.409-.589.154-.052.314-.078.474-.078z" id="path-3" class="cls-5" fill-rule="evenodd"/><path d="M34.786 16.963a1.5 1.5 0 0 1-1.438-1.929c.045-.152 1.146-3.739 4.473-5.383 2.172-1.073 4.714-1.07 7.555.009a1.5 1.5 0 0 1-1.066 2.804c-2.03-.772-3.764-.813-5.16-.124-2.133 1.055-2.92 3.526-2.927 3.551a1.503 1.503 0 0 1-1.437 1.072z" id="path-4" class="cls-5" fill-rule="evenodd"/><path d="M14.985 16.02a1.5 1.5 0 0 1-1.438-1.929c.045-.152 1.146-3.738 4.473-5.383 2.173-1.073 4.714-1.07 7.555.009a1.5 1.5 0 1 1-1.066 2.804c-2.03-.771-3.764-.813-5.159-.124-2.134 1.055-2.92 3.526-2.928 3.551a1.502 1.502 0 0 1-1.437 1.072z" id="path-5" class="cls-5" fill-rule="evenodd"/><path d="M18.757 32.049a1.5 1.5 0 0 1-1.439-1.928c.045-.152 1.147-3.739 4.474-5.384 2.173-1.074 4.714-1.07 7.555.009a1.5 1.5 0 0 1-1.067 2.805c-2.03-.772-3.763-.814-5.159-.124-2.134 1.054-2.92 3.525-2.928 3.55a1.5 1.5 0 0 1-1.436 1.072z" id="path-6" class="cls-5" fill-rule="evenodd"/><path d="M37.615 29.221a1.5 1.5 0 0 1-1.438-1.929c.045-.152 1.146-3.739 4.473-5.383 2.172-1.074 4.714-1.07 7.555.008a1.5 1.5 0 0 1-1.066 2.805c-2.03-.771-3.764-.813-5.16-.124-2.133 1.055-2.919 3.525-2.927 3.55a1.503 1.503 0 0 1-1.437 1.073z" id="path-7" class="cls-5" fill-rule="evenodd"/><path d="M10.27 25.449a1.5 1.5 0 0 1-1.438-1.929c.045-.152 1.146-3.738 4.474-5.383 2.173-1.074 4.714-1.07 7.554.009a1.5 1.5 0 1 1-1.066 2.805c-2.029-.772-3.766-.814-5.159-.124-2.134 1.054-2.92 3.525-2.928 3.549a1.502 1.502 0 0 1-1.437 1.073z" id="path-8" class="cls-5" fill-rule="evenodd"/><path d="M33.799 62.437H23.78a1.498 1.498 0 0 1-1.413-.998l-9.813-27.632a1.493 1.493 0 0 1 .08-1.189c.189-.369.523-.642.922-.756.683-.194 1.445-.462 1.711-.598.273-.244.647-.37 1.002-.379.462.002.898.218 1.181.583.032.042 3.507 4.426 8.196 4.426.951 0 1.908-.181 2.844-.539.307-.116.644-.129.96-.038a14.58 14.58 0 0 0 3.638.462c3.437 0 5.866-1.243 7.221-3.697a1.499 1.499 0 0 1 2.758 1.127l-7.823 28.13a1.5 1.5 0 0 1-1.445 1.098zm-8.96-3h7.82l6.078-21.856c-1.6.792-3.497 1.198-5.649 1.198a18.09 18.09 0 0 1-3.988-.456c-1.134.38-2.293.572-3.454.572-4.658 0-8.199-3.047-9.736-4.647l-.015.006 8.944 25.183zm5.698-6.414a1.5 1.5 0 0 1-1.336-.82l-4.872-9.586a1.498 1.498 0 0 1 1.337-2.18h7.387a1.5 1.5 0 0 1 1.451 1.881l-2.515 9.586a1.502 1.502 0 0 1-1.452 1.119zm-2.426-9.586l1.977 3.891 1.02-3.891h-2.997z" id="path-9" class="cls-5" fill-rule="evenodd"/></g></svg>